<svg xmlns="http://www.w3.org/2000/svg" width="25.196" height="16.523" viewBox="0 0 25.196 16.523">
  <g id="Group_164454" data-name="Group 164454" transform="translate(4560.032 -8880)">
    <path id="Path_2047" data-name="Path 2047" d="M292.912,127.136a3.376,3.376,0,1,1-3.376-3.376,3.376,3.376,0,0,1,3.376,3.376" transform="translate(-4836.97 8756.24)" fill="#605076"/>
    <path id="Path_2048" data-name="Path 2048" d="M450.794,157.075a2.517,2.517,0,1,1-2.517-2.517,2.517,2.517,0,0,1,2.517,2.517" transform="translate(-4988.13 8727.07)" fill="#605076"/>
    <path id="Path_2049" data-name="Path 2049" d="M449.568,271.622c-.5-3.169-2.162-5.064-5-5.064a4.5,4.5,0,0,0-2.724.8,2.667,2.667,0,0,0,.3.266,10.119,10.119,0,0,1,2.428,5.449c0,.089.03.178.03.237,2.754.03,5.182-.444,4.975-1.688Z" transform="translate(-4984.417 8620.993)" fill="#605076"/>
    <path id="Path_2050" data-name="Path 2050" d="M164.074,157.075a2.517,2.517,0,1,1-2.517-2.517,2.517,2.517,0,0,1,2.517,2.517" transform="translate(-4716.572 8727.07)" fill="#605076"/>
    <path id="Path_2051" data-name="Path 2051" d="M119.241,267.626l.266-.266a4.561,4.561,0,0,0-2.724-.8c-2.813,0-4.472,1.866-5,5.064-.207,1.244,2.251,1.718,5,1.718a.579.579,0,0,1,.03-.237,9.9,9.9,0,0,1,2.428-5.478Z" transform="translate(-4671.799 8620.991)" fill="#605076"/>
    <path id="Path_2052" data-name="Path 2052" d="M229.859,274.471c-3.7,0-6.959-.652-6.693-2.28.711-4.264,2.932-6.752,6.693-6.752s5.982,2.517,6.693,6.752C236.818,273.82,233.561,274.471,229.859,274.471Z" transform="translate(-4777.293 8622.053)" fill="#605076"/>
  </g>
</svg>
