<svg xmlns="http://www.w3.org/2000/svg" width="13.265" height="15.16" viewBox="0 0 13.265 15.16"><path d="M.948,13.739A1.421,1.421,0,0,0,2.369,15.16H10.9a1.421,1.421,0,0,0,1.421-1.421V3.79H.948ZM9,6.159a.474.474,0,1,1,.948,0v6.633a.474.474,0,0,1-.948,0Zm-2.843,0a.474.474,0,1,1,.948,0v6.633a.474.474,0,0,1-.948,0Zm-2.843,0a.474.474,0,1,1,.948,0v6.633a.474.474,0,0,1-.948,0ZM12.791.948H9.238L8.96.394A.711.711,0,0,0,8.323,0H4.939a.7.7,0,0,0-.634.394L4.027.948H.474A.474.474,0,0,0,0,1.421v.948a.474.474,0,0,0,.474.474H12.791a.474.474,0,0,0,.474-.474V1.421A.474.474,0,0,0,12.791.948Z" transform="translate(0 0)" fill="#fd7575"/></svg>