<svg xmlns="http://www.w3.org/2000/svg" width="15.742" height="19.909" viewBox="0 0 15.742 19.909">
  <path id="Path_2103" data-name="Path 2103" d="M160.064,39.2a.5.5,0,0,0-.463.463V58.648a.481.481,0,0,0,.463.463H174.88a.481.481,0,0,0,.463-.463V43.832a.473.473,0,0,0-.137-.333l-4.167-4.167a.468.468,0,0,0-.326-.13Zm.463.926h9.723v3.7a.481.481,0,0,0,.463.463h3.7v13.89h-13.89Zm10.649.651,2.59,2.59h-2.59Zm-8.8,6.294a.463.463,0,1,0,0,.926h10.186a.463.463,0,0,0,0-.926Zm0,3.7a.463.463,0,1,0,0,.926h10.186a.463.463,0,0,0,0-.926Zm0,3.7a.463.463,0,1,0,0,.926h10.186a.463.463,0,0,0,0-.926Z" transform="translate(-159.601 -39.202)" fill="#0fb9c5"/>
</svg>
