<svg xmlns="http://www.w3.org/2000/svg" width="21.961" height="17.422" viewBox="0 0 21.961 17.422">
  <g id="Icon_ionic-md-mail-unread" data-name="Icon ionic-md-mail-unread" transform="translate(-2.25 -4.5)">
    <path id="Path_2031" data-name="Path 2031" d="M31.933,7.529A3.029,3.029,0,1,1,28.9,4.5,3.029,3.029,0,0,1,31.933,7.529Z" transform="translate(-7.722)" fill="#f88122"/>
    <path id="Path_2032" data-name="Path 2032" d="M18.858,11.465l-6.006,4L4.522,9.918V7.9l8.33,5.552,4.785-3.19a4.256,4.256,0,0,1-.057-4.634H4.271A2.026,2.026,0,0,0,2.25,7.646V20.269A2.026,2.026,0,0,0,4.271,22.29H21.437a2.026,2.026,0,0,0,2.021-2.021V11.5a4.26,4.26,0,0,1-4.6-.033Z" transform="translate(0 -0.368)" fill="#605076"/>
  </g>
</svg>
