<svg class="svg" xmlns="http://www.w3.org/2000/svg" width="22.641" height="22.555" viewBox="0 0 22.641 22.555">
  <g id="Group_164452" data-name="Group 164452" transform="translate(-7603.23 22615)">
    <path id="Path_1861" data-name="Path 1861" d="M174.387,112.454a1.617,1.617,0,0,1,.254.014l.61-2.276V105.4a.4.4,0,0,0-.4-.4h-16.94a.4.4,0,0,0-.4.4v4.783l.611,2.281h0a1.6,1.6,0,0,1,.252-.014.393.393,0,0,1-.057-.194v-1.613h.807v1.21h1.21v.807h-1.2a1.614,1.614,0,0,1,.344.261l.949.949h11.9l.951-.951a1.6,1.6,0,0,1,.341-.259h-1.193v-.807h1.21v-1.21h.807v1.613a.393.393,0,0,1-.057.194Zm-14.06-5.438h-1.21v1.21h-.807v-1.613a.4.4,0,0,1,.4-.4h1.613Zm2.017,2.823h-.807v-.807h.807Zm4.033,2.42a2.827,2.827,0,1,1,2-.828A2.823,2.823,0,0,1,166.377,112.26Zm4.84-2.42h-.807v-.807h.807Zm2.42-1.613v-1.21h-1.21v-.807h1.613a.4.4,0,0,1,.4.4v1.613Z" transform="translate(7448.173 -22716.775)" fill="#0fb9c5"/>
    <path id="Path_1862" data-name="Path 1862" d="M104.428,203.506l2.259,8.434,1.966,1.447h0a.4.4,0,0,1,.151.221l.1.389,3.9-1.044-.7-2.6-3.859-3.858h0a.807.807,0,0,0-.781-.209.5.5,0,0,0-.1.035l-.037.018a.757.757,0,0,0-.23.158.807.807,0,0,0,0,1.139l3.26,3.26-.571.57-3.258-3.26a1.618,1.618,0,0,1,0-2.282,1.727,1.727,0,0,1,.171-.142l-.721-2.69a.807.807,0,0,0-1.56.418Z" transform="translate(7498.829 -22809.77)" fill="#0fb9c5"/>
    <path id="Path_1863" data-name="Path 1863" d="M421.517,202.895a.787.787,0,0,0-.484-.369.773.773,0,0,0-.609.078.785.785,0,0,0-.379.488l-.723,2.694a1.757,1.757,0,0,1,.161.133,1.633,1.633,0,0,1,.431.754,1.613,1.613,0,0,1-.424,1.533l-3.259,3.259-.57-.57,3.259-3.259a.8.8,0,0,0,.213-.766.827.827,0,0,0-.213-.379.717.717,0,0,0-.218-.15.689.689,0,0,0-.135-.055.8.8,0,0,0-.787.2l-3.86,3.86-.7,2.6,3.9,1.044.105-.391h0a.4.4,0,0,1,.151-.221l1.969-1.44,2.259-8.434a.806.806,0,0,0-.084-.617Z" transform="translate(7204.244 -22809.775)" fill="#0fb9c5"/>
    <path id="Path_1864" data-name="Path 1864" d="M175.246,70.4a.4.4,0,0,0-.4-.4H157.9a.4.4,0,0,0-.4.4v.477a1.2,1.2,0,0,1,.4-.074h16.94a1.2,1.2,0,0,1,.4.074Z" transform="translate(7448.177 -22683.387)" fill="#0fb9c5"/>
    <path id="Path_1865" data-name="Path 1865" d="M310.283,159.517a2.017,2.017,0,1,1-2.017-2.017,2.017,2.017,0,0,1,2.017,2.017" transform="translate(7306.284 -22766.852)" fill="#0fb9c5"/>
    <path id="Path_1866" data-name="Path 1866" d="M384.305,443.322l-.377-.1a.037.037,0,0,1-.015,0l-4.674-1.254-.388-.1-.626,2.339,5.454,1.462Z" transform="translate(7237.626 -23038.107)" fill="#0fb9c5"/>
    <path id="Path_1867" data-name="Path 1867" d="M195.949,444.183l-.626-2.338-.39.1-5.065,1.357.626,2.338Z" transform="translate(7417.301 -23038.092)" fill="#0fb9c5"/>
    <path id="Path_1868" data-name="Path 1868" d="M175.246,35.4a.4.4,0,0,0-.4-.4H157.9a.4.4,0,0,0-.4.4v.478a1.2,1.2,0,0,1,.4-.074h16.94a1.2,1.2,0,0,1,.4.074Z" transform="translate(7448.177 -22650)" fill="#0fb9c5"/>
  </g>
</svg>
