<svg xmlns="http://www.w3.org/2000/svg" width="90.473" height="100.515" viewBox="0 0 90.473 100.515">
  <g id="Group_164865" data-name="Group 164865" transform="translate(17234.457 -14820)">
    <path id="Path_2202" data-name="Path 2202" d="M204.182,105.008a13.437,13.437,0,0,0-7.568-12.482,7.01,7.01,0,0,1-4.158-6.237V39.28a21.818,21.818,0,0,0-21.794-21.794H127.608a13.76,13.76,0,0,0-13.888,12.99,13.439,13.439,0,0,0,7.568,12.483,7.01,7.01,0,0,1,4.158,6.237V96.2A21.818,21.818,0,0,0,147.241,118h43.054a13.762,13.762,0,0,0,13.888-12.991ZM128.8,96.2V49.2a10.336,10.336,0,0,0-6.044-9.254,10.078,10.078,0,0,1-5.682-9.366,10.386,10.386,0,0,1,10.544-9.739h43.054A18.462,18.462,0,0,1,189.106,39.28V86.289a10.334,10.334,0,0,0,6.044,9.262,10.075,10.075,0,0,1,5.682,9.356,10.386,10.386,0,0,1-10.544,9.742H147.243A18.463,18.463,0,0,1,128.8,96.2Z" transform="translate(-17348.172 14802.515)" fill="#dee0e2"/>
    <path id="Path_2203" data-name="Path 2203" d="M210.431,67.718l8.934-10.051-2.5-2.224-7.683,8.651-3.217-3.617-2.5,2.225,4.468,5.026h0a1.676,1.676,0,0,0,2.5,0Z" transform="translate(-17420.734 14771.824)" fill="#dee0e2"/>
    <path id="Path_2204" data-name="Path 2204" d="M280,105h10.051v3.35H280Z" transform="translate(-17482.621 14731.755)" fill="#dee0e2"/>
    <path id="Path_2205" data-name="Path 2205" d="M350,105h10.051v3.35H350Z" transform="translate(-17539.221 14731.755)" fill="#dee0e2"/>
    <path id="Path_2206" data-name="Path 2206" d="M420,105h10.051v3.35H420Z" transform="translate(-17595.818 14731.755)" fill="#dee0e2"/>
    <path id="Path_2207" data-name="Path 2207" d="M297.5,157.5h36.854v3.35H297.5Z" transform="translate(-17496.771 14689.306)" fill="#dee0e2"/>
    <path id="Path_2208" data-name="Path 2208" d="M236.25,210h46.906v3.35H236.25Z" transform="translate(-17447.248 14646.857)" fill="#dee0e2"/>
    <path id="Path_2209" data-name="Path 2209" d="M262.5,402.5h10.051v3.35H262.5Z" transform="translate(-17468.473 14491.212)" fill="#dee0e2"/>
    <path id="Path_2210" data-name="Path 2210" d="M332.5,402.5h10.051v3.35H332.5Z" transform="translate(-17525.07 14491.212)" fill="#dee0e2"/>
    <path id="Path_2211" data-name="Path 2211" d="M402.5,402.5h10.051v3.35H402.5Z" transform="translate(-17581.668 14491.212)" fill="#dee0e2"/>
    <path id="Path_2212" data-name="Path 2212" d="M245,455h50.256v3.35H245Z" transform="translate(-17454.322 14448.763)" fill="#dee0e2"/>
    <path id="Path_2213" data-name="Path 2213" d="M231.9,284.449l2.3-1.27,2.3,1.27a1.656,1.656,0,0,0,.809.209,1.675,1.675,0,0,0,1.655-1.945l-.459-2.8,1.924-1.97h0a1.675,1.675,0,0,0-.947-2.825l-2.59-.4-1.173-2.5a1.675,1.675,0,0,0-3.032,0l-1.173,2.5-2.59.4a1.675,1.675,0,0,0-.947,2.825l1.924,1.97-.459,2.8h0a1.675,1.675,0,0,0,2.464,1.736Zm1.005-6.553a1.676,1.676,0,0,0,1.263-.945l.028-.076.035.076a1.676,1.676,0,0,0,1.263.945l.253.039-.238.243h0a1.677,1.677,0,0,0-.454,1.44l.037.231-.087-.047a1.677,1.677,0,0,0-1.618,0l-.087.047.037-.231a1.677,1.677,0,0,0-.454-1.44l-.238-.243Z" transform="translate(-17440.174 14597.327)" fill="#dee0e2"/>
    <path id="Path_2214" data-name="Path 2214" d="M317.6,284.349a1.674,1.674,0,0,0,1.775.1l2.3-1.27,2.3,1.27a1.656,1.656,0,0,0,.809.209,1.675,1.675,0,0,0,1.655-1.945l-.459-2.8,1.923-1.97h0a1.675,1.675,0,0,0-.947-2.825l-2.6-.4-1.173-2.5a1.675,1.675,0,0,0-3.032,0l-1.173,2.5-2.59.4a1.675,1.675,0,0,0-.947,2.825l1.924,1.97-.459,2.8h0a1.673,1.673,0,0,0,.7,1.639Zm2.774-6.456a1.676,1.676,0,0,0,1.263-.945l.035-.076.035.076a1.676,1.676,0,0,0,1.263.945l.253.039-.238.243h0a1.677,1.677,0,0,0-.454,1.44l.037.231-.087-.047a1.677,1.677,0,0,0-1.618,0l-.087.047.037-.231a1.677,1.677,0,0,0-.454-1.44l-.238-.243Z" transform="translate(-17510.891 14597.329)" fill="#dee0e2"/>
    <path id="Path_2215" data-name="Path 2215" d="M415.8,276.236a1.676,1.676,0,0,0-1.34-1.124l-2.59-.4-1.173-2.5h0a1.675,1.675,0,0,0-3.032,0l-1.173,2.5-2.59.4a1.676,1.676,0,0,0-.947,2.825l1.924,1.97-.459,2.8h0a1.675,1.675,0,0,0,2.464,1.736l2.3-1.27,2.3,1.27a1.656,1.656,0,0,0,.809.209,1.675,1.675,0,0,0,1.655-1.945l-.459-2.8,1.923-1.97h0a1.676,1.676,0,0,0,.389-1.7Zm-5.3,1.936h0a1.677,1.677,0,0,0-.454,1.44l.037.231L410,279.8a1.677,1.677,0,0,0-1.618,0l-.087.047.037-.231a1.677,1.677,0,0,0-.454-1.44l-.238-.243.253-.039h0a1.676,1.676,0,0,0,1.263-.945l.035-.076.035.076a1.676,1.676,0,0,0,1.263.945l.253.039Z" transform="translate(-17581.654 14597.331)" fill="#dee0e2"/>
  </g>
</svg>
