<svg xmlns="http://www.w3.org/2000/svg" width="22.968" height="20.007" viewBox="0 0 22.968 20.007">
  <g id="Group_164456" data-name="Group 164456" transform="translate(3302 -9098)">
    <path id="Path_2053" data-name="Path 2053" d="M85.793,47.837a5.951,5.951,0,0,1-4.287,1.712c-.442,0-.885.006-1.327,0h0a.473.473,0,0,0-.39.161c-.995,1.047-2,2.086-3,3.13a.99.99,0,0,1-.747.352.9.9,0,0,1-.894-.927q-.011-1.3,0-2.6c0-.165-.048-.22-.214-.262A6.3,6.3,0,0,1,70.269,44.8,13.664,13.664,0,0,1,70,43.448V42.192a7.643,7.643,0,0,1,.22-1.184,6.439,6.439,0,0,1,4.05-4.577,5.405,5.405,0,0,1,1.937-.34c1.732,0,3.463.006,5.194,0a6.038,6.038,0,0,1,5.458,3.08,7.086,7.086,0,0,1-1.069,8.666Z" transform="translate(-3372.003 9061.909)" fill="#605076"/>
    <path id="Path_2054" data-name="Path 2054" d="M331.174,214.289a4.55,4.55,0,0,0-2.272-1.1c-.009.063-.016.1-.019.135a7.8,7.8,0,0,1-.908,3.164,7.173,7.173,0,0,1-6.556,4.015c-.314,0-.628,0-.944,0-.256,0-.37.2-.24.409a4.5,4.5,0,0,0,3.13,2.238,12.6,12.6,0,0,0,1.813.09h0a.449.449,0,0,1,.349.153c.4.432.816.856,1.226,1.282.314.329.628.663.951.987a.789.789,0,0,0,1.111.078.84.84,0,0,0,.272-.685c0-.546.008-1.091,0-1.637,0-.2.053-.264.247-.336a6.248,6.248,0,0,0,1.358-.622,5.265,5.265,0,0,0,.487-8.17Z" transform="translate(-3611.92 8892.075)" fill="#605076"/>
  </g>
</svg>
