<svg xmlns="http://www.w3.org/2000/svg" width="75.169" height="21.606" viewBox="0 0 75.169 21.606">
  <g id="kbm_logo_white_outlined" data-name="kbm logo white outlined" transform="translate(37.584 10.803)">
    <g id="Group_164440" data-name="Group 164440" transform="translate(-37.584 -10.803)">
      <g id="Group_164437" data-name="Group 164437">
        <path id="Path_2041" data-name="Path 2041" d="M152.537,2.652l-2.9,4.8a.5.5,0,0,1-.862,0l-2.893-4.8a.5.5,0,0,0-.431-.243h-5.872a.5.5,0,0,0-.5.5V4.554c-.073-.073-.146-.145-.223-.214a7.051,7.051,0,0,0-4.87-1.94h-8.929v.007H121.5a.5.5,0,0,0-.384.178L119.6,4.369a.5.5,0,0,1-.887-.326V2.912a.5.5,0,0,0-.5-.5h-6.5a.5.5,0,0,0-.5.5V22.848a.5.5,0,0,0,.5.5h6.5a.5.5,0,0,0,.5-.5V21.417a.5.5,0,0,1,.891-.321l1.718,2.073a.5.5,0,0,0,.388.182h9.18l-.006-.008h3.6a7.232,7.232,0,0,0,3.82-1.086.5.5,0,0,1,.771.424v.165a.5.5,0,0,0,.5.5h6.5a.5.5,0,0,0,.5-.5V19.995a.5.5,0,0,1,.934-.26h0a.5.5,0,0,0,.431.243h2.5a.5.5,0,0,0,.431-.243l0,0a.5.5,0,0,1,.934.26v2.856a.5.5,0,0,0,.5.5h6.5a.5.5,0,0,0,.5-.5V2.912a.5.5,0,0,0-.5-.5h-5.847A.5.5,0,0,0,152.537,2.652Zm-30.088,9.715,1.719-2.07a.5.5,0,0,1,.89.321v4.176a.5.5,0,0,1-.893.318l-1.719-2.106A.5.5,0,0,1,122.448,12.367Z" transform="translate(-84.149 -1.816)" fill="#fff"/>
        <path id="Path_2042" data-name="Path 2042" d="M20.987,8.06h0V.5a.5.5,0,0,0-.5-.5H8.563a.5.5,0,0,0-.5.5V7.557a.5.5,0,0,1-.5.5H.5a.5.5,0,0,0-.5.5V21.1a.5.5,0,0,0,.5.5H14.572l.047,0A6.643,6.643,0,0,0,20.987,14.8Z" fill="#fff"/>
      </g>
      <g id="Group_164439" data-name="Group 164439" transform="translate(2.433 2.433)">
        <g id="Groupe_162303" data-name="Groupe 162303" transform="translate(27.06 0.584)">
          <path id="Tracé_774" data-name="Tracé 774" d="M126.6,20.266l6.731,8.246h-3.145l-6.336-7.648v7.648h-2.638V12.436h2.637v7.208l6.11-7.208H133.1Z" transform="translate(-121.209 -12.427)" fill="#4a3f64"/>
          <path id="Tracé_775" data-name="Tracé 775" d="M187.58,20.148a4.092,4.092,0,0,1,2.251,3.737,4.3,4.3,0,0,1-1.4,3.282,4.832,4.832,0,0,1-3.419,1.311h-6.889V12.4H184.5a4.65,4.65,0,0,1,3.328,1.288,4.174,4.174,0,0,1,1.379,3.168A3.891,3.891,0,0,1,187.58,20.148Zm-3.078-5.26h-3.744v4.23H184.5a2,2,0,0,0,1.471-.606,2.18,2.18,0,0,0,0-3,1.964,1.964,0,0,0-1.47-.622Zm-3.744,11.12h4.252a2.094,2.094,0,0,0,1.554-.652,2.206,2.206,0,0,0,.629-1.6,2.238,2.238,0,0,0-.629-1.6,2.066,2.066,0,0,0-1.554-.652h-4.252Z" transform="translate(-164.273 -12.4)" fill="#4a3f64"/>
          <path id="Tracé_776" data-name="Tracé 776" d="M248.29,12.436h2.827V28.513H248.48V17.052l-4.889,8.087h-.318l-4.889-8.11V28.512h-2.639V12.436H238.6l4.843,8.035Z" transform="translate(-207.876 -12.427)" fill="#4a3f64"/>
        </g>
        <g id="Group_164438" data-name="Group 164438">
          <rect id="Rectangle_147782" data-name="Rectangle 147782" width="8.06" height="8.68" transform="translate(0 8.06)" fill="#ed6918"/>
          <path id="Rectangle_147785" data-name="Rectangle 147785" d="M43.126,43.124h8.06v4.34a4.2,4.2,0,0,1-4.03,4.34h-4.03Z" transform="translate(-35.065 -35.064)" fill="#4a3f64"/>
          <rect id="Rectangle_147786" data-name="Rectangle 147786" width="8.06" height="8.06" transform="translate(8.06)" fill="#1ba9b7"/>
        </g>
      </g>
    </g>
  </g>
</svg>
